HIERARCHY
ROOT Hips
{
 OFFSET 0.000000 0.000000 0.000000
 CHANNELS 6 Xposition Yposition Zposition Yrotation Xrotation Zrotation
 JOINT Chest
 {
  OFFSET 0.000000 9.585900 0.002600
  CHANNELS 3 Yrotation Xrotation Zrotation
  JOINT Chest2
  {
   OFFSET 0.000000 9.601200 -0.005300
   CHANNELS 3 Yrotation Xrotation Zrotation
   JOINT Chest3
   {
    OFFSET 0.000000 9.561800 0.000000
    CHANNELS 3 Yrotation Xrotation Zrotation
    JOINT Chest4
    {
     OFFSET 0.000000 9.552100 0.000000
     CHANNELS 3 Yrotation Xrotation Zrotation
     JOINT Neck
     {
      OFFSET 0.000000 14.453000 0.000000
      CHANNELS 3 Yrotation Xrotation Zrotation
      JOINT Head
      {
       OFFSET 0.000000 8.936500 -0.011300
       CHANNELS 3 Yrotation Xrotation Zrotation
       End Site
       {
        OFFSET 0.000000 17.073600 -0.006000
       }
      }
     }
     JOINT RightCollar
     {
      OFFSET -2.921100 9.558500 0.000000
      CHANNELS 3 Yrotation Xrotation Zrotation
      JOINT RightShoulder
      {
       OFFSET -13.519700 0.000000 0.000000
       CHANNELS 3 Yrotation Xrotation Zrotation
       JOINT RightElbow
       {
        OFFSET 0.000000 -29.696600 0.000000
        CHANNELS 3 Yrotation Xrotation Zrotation
        JOINT RightWrist
        {
         OFFSET 0.000000 -24.004700 0.000000
         CHANNELS 3 Yrotation Xrotation Zrotation
         End Site
         {
          OFFSET 0.000000 -17.728500 0.000000
         }
        }
       }
      }
     }
     JOINT LeftCollar
     {
      OFFSET 2.921100 9.558500 0.000000
      CHANNELS 3 Yrotation Xrotation Zrotation
      JOINT LeftShoulder
      {
       OFFSET 13.519700 0.000000 0.000000
       CHANNELS 3 Yrotation Xrotation Zrotation
       JOINT LeftElbow
       {
        OFFSET 0.000000 -29.696600 0.000000
        CHANNELS 3 Yrotation Xrotation Zrotation
        JOINT LeftWrist
        {
         OFFSET 0.000000 -24.004700 0.000000
         CHANNELS 3 Yrotation Xrotation Zrotation
         End Site
         {
          OFFSET 0.000000 -17.728500 0.000000
         }
        }
       }
      }
     }
    }
   }
  }
 }
 JOINT RightHip
 {
  OFFSET -7.771700 -0.012900 -0.001300
  CHANNELS 3 Yrotation Xrotation Zrotation
  JOINT RightKnee
  {
   OFFSET 0.000000 -40.869800 0.001200
   CHANNELS 3 Yrotation Xrotation Zrotation
   JOINT RightAnkle
   {
    OFFSET 0.000000 -39.717900 0.002100
    CHANNELS 3 Yrotation Xrotation Zrotation
    JOINT RightToe
    {
     OFFSET 0.000000 -4.965400 11.033500
     CHANNELS 3 Yrotation Xrotation Zrotation
     End Site
     {
      OFFSET 0.000000 -1.423100 5.872300
     }
    }
   }
  }
 }
 JOINT LeftHip
 {
  OFFSET 7.771700 -0.012900 -0.001300
  CHANNELS 3 Yrotation Xrotation Zrotation
  JOINT LeftKnee
  {
   OFFSET 0.000000 -40.869800 0.001200
   CHANNELS 3 Yrotation Xrotation Zrotation
   JOINT LeftAnkle
   {
    OFFSET 0.000000 -39.717900 0.002100
    CHANNELS 3 Yrotation Xrotation Zrotation
    JOINT LeftToe
    {
     OFFSET 0.000000 -4.965400 11.033500
     CHANNELS 3 Yrotation Xrotation Zrotation
     End Site
     {
      OFFSET 0.000000 -1.423100 5.872300
     }
    }
   }
  }
 }
}
MOTION
Frames: 7
Frame Time: 0.008333
0.000000 85.388000 0.000000 0.000000 -5.767877 0.000000 0.000000 11.653817 0.000000 0.000000 -5.885947 0.000000 0.000000 -0.000000 0.000000 0.000000 -0.000000 0.000000 0.000000 12.528835 0.000000 0.000000 0.711642 0.000000 0.000000 -0.000000 0.000000 0.000000 0.000000 -90.000000 0.000000 -2.309062 0.000000 0.000000 2.309062 0.000000 0.000000 -0.000000 0.000000 0.000000 -0.000000 90.000000 0.000000 -2.309062 0.000000 0.000000 2.309062 0.000000 0.000000 8.520406 0.000000 0.000000 1.905762 0.000000 -0.000000 -4.658285 0.000000 0.000000 -0.000000 0.000000 0.000000 8.520406 0.000000 0.000000 1.905762 0.000000 -0.000000 -4.658285 0.000000 0.000000 -0.000000 0.000000
-139.122083 58.530467 113.327426 177.438874 -23.821516 -0.836969 2.678561 18.341922 2.145854 0.253187 2.124407 0.157208 0.448610 3.489857 0.301342 2.264628 15.981916 1.653317 0.736799 10.289642 -2.332080 2.368262 -16.588395 -4.743524 1.508841 0.166913 0.077260 -4.302372 -16.161376 -12.450170 147.396547 -48.752749 -140.886765 13.091844 -15.083890 -52.384803 -6.332505 -0.837875 -2.176937 19.049678 -16.514716 0.603453 -169.314442 -54.682350 154.206175 -9.076723 -5.623785 22.052935 3.705169 -50.586841 0.082353 -15.235611 66.558468 -20.469978 6.831834 22.690031 7.276462 -0.186302 -16.206559 1.758093 -3.501200 -48.508545 -0.379657 25.119612 66.415233 22.440789 -17.552363 2.391341 0.346146 -0.075557 0.015821 0.073036
-139.126854 58.535155 113.321585 177.439320 -23.821245 -0.855812 2.669468 18.353959 2.138863 0.253422 2.128586 0.156070 0.449770 3.491930 0.299687 2.281448 15.965883 1.669374 0.658741 10.325888 -2.268265 2.270978 -16.580983 -4.599279 1.513601 0.164815 0.083411 -4.059298 -16.211145 -12.270388 146.702287 -50.357461 -140.108028 12.755913 -14.585973 -51.997926 -6.374034 -0.831236 -2.224924 18.969755 -16.445300 0.481257 -168.803729 -55.623596 153.727944 -9.057763 -5.231303 21.861474 3.699414 -50.564282 0.054075 -15.196923 66.547234 -20.377699 6.852060 22.660876 7.253790 -0.214218 -16.183815 1.758438 -3.525248 -48.505002 -0.353735 25.120201 66.421937 22.443541 -17.543717 2.356733 0.310673 -0.079460 0.016441 0.087617
-139.130488 58.539769 113.316691 177.416024 -23.808917 -0.885813 2.687002 18.356633 2.153421 0.263118 2.121023 0.165290 0.450476 3.493251 0.298800 2.262792 16.004454 1.625189 0.615536 10.329227 -2.162455 2.171929 -16.568346 -4.448948 1.545843 0.120818 0.131438 -3.798429 -16.272089 -12.127092 146.062754 -51.945457 -139.393884 12.470679 -14.094866 -51.613661 -6.445083 -0.852796 -2.258697 18.929437 -16.408631 0.404488 -168.315246 -56.471946 153.274233 -9.052628 -4.885061 21.667808 3.686785 -50.572908 0.084661 -15.230391 66.544180 -20.365329 6.841612 22.657398 7.202436 -0.205630 -16.181805 1.773271 -3.562982 -48.514689 -0.291457 25.141956 66.431023 22.468794 -17.540705 2.318360 0.267817 -0.064612 0.015397 0.099920
-139.138616 58.545822 113.308650 177.402673 -23.810351 -0.905730 2.694354 18.373383 2.151746 0.270709 2.113764 0.176830 0.451321 3.494598 0.297916 2.255711 16.033147 1.594498 0.576910 10.345576 -2.075887 2.051228 -16.530436 -4.275352 1.568576 0.086288 0.172256 -3.526188 -16.334925 -12.023728 145.457744 -53.476785 -138.732490 12.250338 -13.605967 -51.254217 -6.505138 -0.869171 -2.279787 18.870517 -16.369822 0.324666 -167.839286 -57.219991 152.831840 -9.049264 -4.578819 21.478783 3.739772 -50.561814 0.014680 -15.230981 66.546032 -20.266289 6.863759 22.648801 7.168155 -0.217994 -16.179614 1.772022 -3.595801 -48.512914 -0.255058 25.148586 66.449953 22.488732 -17.536005 2.276820 0.215386 -0.057740 -0.014452 0.084720
-139.151177 58.551468 113.301509 177.394491 -23.800691 -0.914089 2.690694 18.387212 2.129805 0.271973 2.115425 0.176093 0.439049 3.524961 0.264918 2.294746 15.992172 1.636889 0.524708 10.399572 -2.007897 1.928593 -16.466673 -4.092710 1.581445 0.074120 0.191593 -3.249171 -16.395618 -11.957706 144.818507 -54.901686 -138.065859 12.077548 -13.131589 -50.929965 -6.565129 -0.875842 -2.315877 18.803613 -16.325696 0.254260 -167.365681 -57.865585 152.392507 -9.049276 -4.316597 21.300274 3.831465 -50.560471 -0.106350 -15.237767 66.547674 -20.155504 6.893249 22.640219 7.139636 -0.235335 -16.176975 1.768145 -3.634559 -48.524213 -0.238604 25.192561 66.455772 22.533574 -17.524542 2.260038 0.186345 -0.059664 -0.033498 0.074590
-139.159722 58.556441 113.296584 177.360587 -23.775939 -0.947497 2.721408 18.383070 2.142387 0.273616 2.117312 0.175258 0.440730 3.527760 0.265870 2.311957 15.980353 1.647816 0.473293 10.470276 -1.932193 1.802886 -16.372033 -3.900187 1.590078 0.057892 0.208633 -2.974899 -16.447149 -11.922005 144.100884 -56.185013 -137.347257 11.943041 -12.686961 -50.647079 -6.626344 -0.891410 -2.351900 18.737512 -16.277429 0.204532 -166.883565 -58.407566 151.951006 -9.058728 -4.100564 21.134381 3.902900 -50.577174 -0.163829 -15.258519 66.543444 -20.065711 6.928225 22.633913 7.112866 -0.256119 -16.173120 1.768483 -3.667157 -48.547232 -0.170837 25.191091 66.467371 22.548069 -17.531097 2.234169 0.149523 -0.045038 -0.042904 0.070571
